<svg xmlns="http://www.w3.org/2000/svg" viewBox="0 0 410 404"><defs><linearGradient x1="6.674" y1="32.822" x2="171.319" y2="247.217" gradientUnits="userSpaceOnUse" id="a"><stop stop-color="#41d1ff"/><stop offset="1" stop-color="#bd34fe"/></linearGradient><linearGradient x1="139.954" y1="-27.919" x2="194.941" y2="152.665" gradientUnits="userSpaceOnUse" id="b"><stop stop-color="#ffea83"/><stop offset=".083" stop-color="#ffdd35"/><stop offset="1" stop-color="#ffa800"/></linearGradient></defs><path fill="#fff" d="M399.641 59.525 215.6 388.113c-5.933 10.43-20.724 10.508-26.763.146L9.212 59.555c-6.266-10.8 1.846-24.112 14.04-22.633l186.398 22.927a15.13 15.13 0 0 0 3.543-.005l172.847-22.89c12.145-1.609 20.293 11.39 14.11 22.172Z"/><path fill="url(#a)" d="M292.965 1.574 156.789 23.363a7.517 7.517 0 0 0-6.345 8.88l31.18 199.417c.96 6.136 9.413 7.815 12.636 2.476L304.235 9.502c3.222-5.338-1.39-11.908-7.793-10.7Z"/><path fill="url(#b)" d="m292.965 1.574-41.363 7.02-89.572 154.887 20.905 131.734c.96 6.136 9.413 7.815 12.636 2.476L304.235 9.502c3.222-5.338-1.39-11.908-7.793-10.7Z"/></svg>
